<svg xmlns="http://www.w3.org/2000/svg" width="512" height="512" viewBox="0 0 100 100">
  <defs>
    <linearGradient id="g" x1="0" y1="0" x2="1" y2="1">
      <stop offset="0" stop-color="#3fe9ff"/>
      <stop offset="1" stop-color="#06b8d6"/>
    </linearGradient>
    <linearGradient id="gr" x1="1" y1="0" x2="0" y2="1">
      <stop offset="0" stop-color="#1fc8e6"/>
      <stop offset="1" stop-color="#0488a3"/>
    </linearGradient>
  </defs>
  <!-- left wing -->
  <path d="M42 40 L33 33 L20 52 L18 64 L26 56 L31 47 L40 50 Z" fill="url(#g)"/>
  <path d="M18 64 L40 54 L34 64 L26 70 Z" fill="url(#g)" opacity=".85"/>
  <!-- right wing -->
  <path d="M58 40 L67 33 L80 52 L82 64 L74 56 L69 47 L60 50 Z" fill="url(#gr)"/>
  <path d="M82 64 L60 54 L66 64 L74 70 Z" fill="url(#gr)" opacity=".85"/>
  <!-- central spear (two facets) -->
  <path d="M50 8 L44 34 L50 70 Z" fill="url(#g)"/>
  <path d="M50 8 L56 34 L50 70 Z" fill="#0586a0"/>
  <!-- lower spike -->
  <path d="M50 60 L46 84 L50 93 L54 84 Z" fill="url(#g)"/>
  <path d="M50 60 L54 84 L50 93 Z" fill="#0586a0"/>
</svg>
